# MagicaVoxel @ Ephtracy

# group
o 

# material
mtllib halte.mtl
usemtl palette

# normals
vn -1 0 0
vn 1 0 0
vn 0 0 1
vn 0 0 -1
vn 0 -1 0
vn 0 1 0

# texcoords
vt 0.306641 0.5
vt 0.470703 0.5
vt 0.533203 0.5
vt 0.845703 0.5

# verts
v -0.4 0.7 0.4
v -0.4 0.7 -0.4
v -0.4 0.8 0.4
v -0.4 0.8 -0.4
v -0.3 0 0.4
v -0.3 0 0.3
v -0.3 0 -0.3
v -0.3 0 -0.4
v -0.3 0.5 0.3
v -0.3 0.5 -0.3
v -0.3 0.7 0.4
v -0.3 0.7 -0.4
v -0.2 0.1 0.4
v -0.2 0.1 0.3
v -0.2 0.1 -0.3
v -0.2 0.1 -0.4
v -0.2 0.2 0.4
v -0.2 0.2 0.3
v -0.2 0.2 -0.3
v -0.2 0.2 -0.4
v -0.2 0.3 0.4
v -0.2 0.3 0.3
v -0.2 0.3 -0.3
v -0.2 0.3 -0.4
v -0.2 0.5 0.3
v -0.2 0.5 -0.3
v -0.2 0.7 0.4
v -0.2 0.7 0.3
v -0.2 0.7 -0.3
v -0.2 0.7 -0.4
v 0 0.2 0.4
v 0 0.2 -0.4
v 0 0.3 0.4
v 0 0.3 -0.4
v 0.4 0 0.4
v 0.4 0 -0.4
v 0.4 0.1 0.4
v 0.4 0.1 -0.4
v 0.4 0.7 0.4
v 0.4 0.7 -0.4
v 0.4 0.8 0.4
v 0.4 0.8 -0.4
v -0.4 0.7 0.4
v -0.4 0.8 0.4
v -0.3 0 0.4
v -0.3 0.7 0.4
v -0.2 0.1 0.4
v -0.2 0.2 0.4
v -0.2 0.3 0.4
v -0.2 0.7 0.4
v 0 0.2 0.4
v 0 0.3 0.4
v 0.3 0.7 0.4
v 0.3 0.8 0.4
v 0.4 0 0.4
v 0.4 0.1 0.4
v 0.4 0.7 0.4
v 0.4 0.8 0.4
v -0.4 0.7 -0.4
v -0.4 0.8 -0.4
v -0.3 0 -0.4
v -0.3 0.7 -0.4
v -0.2 0.1 -0.4
v -0.2 0.2 -0.4
v -0.2 0.3 -0.4
v -0.2 0.7 -0.4
v 0 0.2 -0.4
v 0 0.3 -0.4
v 0.3 0.7 -0.4
v 0.3 0.8 -0.4
v 0.4 0 -0.4
v 0.4 0.1 -0.4
v 0.4 0.7 -0.4
v 0.4 0.8 -0.4
v -0.3 0 0.4
v 0.4 0 0.4
v -0.3 0 0.3
v 0.3 0 0.3
v -0.3 0 -0.3
v 0.3 0 -0.3
v -0.3 0 -0.4
v 0.4 0 -0.4
v -0.2 0.2 0.4
v 0 0.2 0.4
v -0.2 0.2 0.3
v -0.2 0.2 -0.3
v -0.2 0.2 -0.4
v 0 0.2 -0.4
v -0.4 0.7 0.4
v -0.3 0.7 0.4
v -0.2 0.7 0.4
v 0.3 0.7 0.4
v 0.4 0.7 0.4
v -0.2 0.7 0.3
v 0.3 0.7 0.3
v -0.2 0.7 -0.3
v 0.3 0.7 -0.3
v -0.4 0.7 -0.4
v -0.3 0.7 -0.4
v -0.2 0.7 -0.4
v 0.3 0.7 -0.4
v 0.4 0.7 -0.4
v -0.2 0.1 0.4
v 0.4 0.1 0.4
v -0.2 0.1 0.3
v 0.3 0.1 0.3
v -0.2 0.1 -0.3
v 0.3 0.1 -0.3
v -0.2 0.1 -0.4
v 0.4 0.1 -0.4
v -0.2 0.3 0.4
v 0 0.3 0.4
v -0.2 0.3 0.3
v -0.2 0.3 -0.3
v -0.2 0.3 -0.4
v 0 0.3 -0.4
v -0.4 0.8 0.4
v 0.3 0.8 0.4
v 0.4 0.8 0.4
v -0.3 0.8 0.3
v 0.3 0.8 0.3
v -0.3 0.8 -0.3
v 0.3 0.8 -0.3
v -0.4 0.8 -0.4
v 0.3 0.8 -0.4
v 0.4 0.8 -0.4

# faces
f 3/2/1 2/2/1 1/2/1
f 4/2/1 2/2/1 3/2/1
f 9/2/1 6/2/1 5/2/1
f 9/1/1 7/1/1 6/1/1
f 10/2/1 8/2/1 7/2/1
f 10/1/1 7/1/1 9/1/1
f 11/2/1 9/2/1 5/2/1
f 11/2/1 10/2/1 9/2/1
f 12/2/1 8/2/1 10/2/1
f 12/2/1 10/2/1 11/2/1
f 13/2/2 14/2/2 17/2/2
f 14/1/2 15/1/2 18/1/2
f 17/2/2 14/2/2 18/2/2
f 15/2/2 16/2/2 19/2/2
f 18/1/2 15/1/2 19/1/2
f 19/2/2 16/2/2 20/2/2
f 21/2/2 22/2/2 25/2/2
f 22/1/2 23/1/2 25/1/2
f 23/2/2 24/2/2 26/2/2
f 25/1/2 23/1/2 26/1/2
f 21/2/2 25/2/2 27/2/2
f 25/2/2 26/2/2 27/2/2
f 27/2/2 26/2/2 28/2/2
f 26/2/2 24/2/2 29/2/2
f 28/2/2 26/2/2 29/2/2
f 29/2/2 24/2/2 30/2/2
f 31/3/2 32/3/2 33/3/2
f 33/3/2 32/3/2 34/3/2
f 35/2/2 36/2/2 37/2/2
f 37/2/2 36/2/2 38/2/2
f 39/4/2 40/4/2 41/4/2
f 41/4/2 40/4/2 42/4/2
f 46/2/3 44/2/3 43/2/3
f 47/2/3 46/2/3 45/2/3
f 48/2/3 46/2/3 47/2/3
f 49/2/3 46/2/3 48/2/3
f 50/2/3 44/2/3 46/2/3
f 50/2/3 46/2/3 49/2/3
f 51/3/3 49/3/3 48/3/3
f 52/3/3 49/3/3 51/3/3
f 53/2/3 44/2/3 50/2/3
f 54/2/3 44/2/3 53/2/3
f 55/2/3 47/2/3 45/2/3
f 56/2/3 47/2/3 55/2/3
f 57/4/3 54/4/3 53/4/3
f 58/4/3 54/4/3 57/4/3
f 59/2/4 60/2/4 62/2/4
f 61/2/4 62/2/4 63/2/4
f 63/2/4 62/2/4 64/2/4
f 64/2/4 62/2/4 65/2/4
f 62/2/4 60/2/4 66/2/4
f 65/2/4 62/2/4 66/2/4
f 64/3/4 65/3/4 67/3/4
f 67/3/4 65/3/4 68/3/4
f 66/2/4 60/2/4 69/2/4
f 69/2/4 60/2/4 70/2/4
f 61/2/4 63/2/4 71/2/4
f 71/2/4 63/2/4 72/2/4
f 69/4/4 70/4/4 73/4/4
f 73/4/4 70/4/4 74/4/4
f 77/2/5 76/2/5 75/2/5
f 78/2/5 76/2/5 77/2/5
f 79/1/5 78/1/5 77/1/5
f 80/2/5 76/2/5 78/2/5
f 80/1/5 78/1/5 79/1/5
f 81/2/5 80/2/5 79/2/5
f 82/2/5 76/2/5 80/2/5
f 82/2/5 80/2/5 81/2/5
f 85/3/5 84/3/5 83/3/5
f 86/3/5 84/3/5 85/3/5
f 87/3/5 84/3/5 86/3/5
f 88/3/5 84/3/5 87/3/5
f 94/2/5 92/2/5 91/2/5
f 95/4/5 93/4/5 92/4/5
f 95/2/5 92/2/5 94/2/5
f 96/1/5 95/1/5 94/1/5
f 97/4/5 93/4/5 95/4/5
f 97/1/5 95/1/5 96/1/5
f 98/2/5 90/2/5 89/2/5
f 99/2/5 90/2/5 98/2/5
f 100/2/5 97/2/5 96/2/5
f 101/4/5 93/4/5 97/4/5
f 101/2/5 97/2/5 100/2/5
f 102/4/5 93/4/5 101/4/5
f 103/2/6 104/2/6 105/2/6
f 105/2/6 104/2/6 106/2/6
f 105/1/6 106/1/6 107/1/6
f 106/2/6 104/2/6 108/2/6
f 107/1/6 106/1/6 108/1/6
f 107/2/6 108/2/6 109/2/6
f 108/2/6 104/2/6 110/2/6
f 109/2/6 108/2/6 110/2/6
f 111/3/6 112/3/6 113/3/6
f 113/3/6 112/3/6 114/3/6
f 114/3/6 112/3/6 115/3/6
f 115/3/6 112/3/6 116/3/6
f 117/2/6 118/2/6 120/2/6
f 118/4/6 119/4/6 121/4/6
f 120/2/6 118/2/6 121/2/6
f 117/2/6 120/2/6 122/2/6
f 120/1/6 121/1/6 122/1/6
f 121/4/6 119/4/6 123/4/6
f 122/1/6 121/1/6 123/1/6
f 117/2/6 122/2/6 124/2/6
f 122/2/6 123/2/6 124/2/6
f 123/4/6 119/4/6 125/4/6
f 124/2/6 123/2/6 125/2/6
f 125/4/6 119/4/6 126/4/6
